<?xml version="1.0" encoding="iso-8859-1"?>
<!-- Generator: Adobe Illustrator 17.1.0, SVG Export Plug-In . SVG Version: 6.00 Build 0)  -->
<!DOCTYPE svg PUBLIC "-//W3C//DTD SVG 1.1//EN" "http://www.w3.org/Graphics/SVG/1.1/DTD/svg11.dtd">
<svg version="1.1" id="Capa_1" xmlns="http://www.w3.org/2000/svg" xmlns:xlink="http://www.w3.org/1999/xlink" x="0px" y="0px"
	 viewBox="0 0 190 190" style="enable-background:new 0 0 190 190;" xml:space="preserve">
<path d="M35.663,62.198c-0.976,0.977-2.256,1.465-3.535,1.465s-2.56-0.488-3.535-1.465c-1.953-1.952-1.953-5.118,0-7.07l8.536-8.536
	c1.951-1.953,5.119-1.953,7.07,0c1.953,1.952,1.953,5.118,0,7.07L35.663,62.198z M57.809,48.35l-24.19,24.189
	c-1.953,1.952-1.953,5.118,0,7.07c0.976,0.977,2.256,1.465,3.535,1.465s2.56-0.488,3.535-1.465l24.19-24.189
	c1.953-1.952,1.953-5.118,0-7.07C62.928,46.396,59.76,46.396,57.809,48.35z M190,35.996v118.008c0,9.495-7.726,17.221-17.222,17.221
	H17.222C7.726,171.225,0,163.499,0,154.004V35.996c0-9.495,7.726-17.221,17.222-17.221h155.557
	C182.274,18.775,190,26.501,190,35.996z M127.833,137.291c0,3.175,2.582,5.757,5.757,5.757h27.82c3.175,0,5.757-2.582,5.757-5.757
	s-2.582-5.757-5.757-5.757h-27.82C130.415,131.534,127.833,134.116,127.833,137.291z M131.795,66.599
	c-2.115,0-3.837,1.721-3.837,3.836v33.412c0,2.115,1.722,3.836,3.837,3.836h31.41c2.115,0,3.837-1.721,3.837-3.836V70.435
	c0-2.115-1.722-3.836-3.837-3.836H131.795z M167.574,45.156c0-2.011-1.636-3.646-3.646-3.646h-32.698
	c-2.011,0-3.646,1.636-3.646,3.646s1.636,3.646,3.646,3.646h32.698C165.938,48.803,167.574,47.167,167.574,45.156z M21.623,137.258
	c0,3.316,2.644,5.96,5.893,5.96h75.035c3.25,0,5.894-2.644,5.894-5.894c0-3.315-2.644-5.959-5.894-5.959H27.516
	C24.267,131.365,21.623,134.009,21.623,137.258z M109.285,44.487c0-2.883-2.345-5.228-5.228-5.228H26.52
	c-2.883,0-5.228,2.345-5.228,5.228v58.611c0,2.882,2.345,5.227,5.228,5.227h77.538c2.883,0,5.228-2.345,5.228-5.227V44.487z"/>
<g>
</g>
<g>
</g>
<g>
</g>
<g>
</g>
<g>
</g>
<g>
</g>
<g>
</g>
<g>
</g>
<g>
</g>
<g>
</g>
<g>
</g>
<g>
</g>
<g>
</g>
<g>
</g>
<g>
</g>
</svg>
