<?xml version="1.0" encoding="iso-8859-1"?>
<!-- Generator: Adobe Illustrator 16.0.0, SVG Export Plug-In . SVG Version: 6.00 Build 0)  -->
<!DOCTYPE svg PUBLIC "-//W3C//DTD SVG 1.1//EN" "http://www.w3.org/Graphics/SVG/1.1/DTD/svg11.dtd">
<svg version="1.1" id="Capa_1" xmlns="http://www.w3.org/2000/svg" xmlns:xlink="http://www.w3.org/1999/xlink" x="0px" y="0px"
	 width="338.104px" height="338.104px" viewBox="0 0 338.104 338.104" style="enable-background:new 0 0 338.104 338.104;"
	 xml:space="preserve">
<g>
	<g>
		<path d="M6.525,272.659c-0.691-0.517-0.865,0.261-0.667,1.141c1.653,7.329,3.012,13.827,3.012,18.632
			c0,29.521,182.613,32.759,182.613-1.582c0-5.396,0.547-9.148,2.844-15.43c0-1.568-0.742-1.084-1.592-0.536
			C158.701,296.861,27.397,294.947,6.525,272.659z"/>
		<path d="M327.966,136.004c14.916-34.693,16.982-73.872-18.896-103.833c-28.299-23.631-47.909-3.996-70.71,28.205
			c-9.769,13.796-34.122,60.765-87.976,116.047c-37.662,38.662-112.928,11.43-141.502,39.603
			c-13.56,13.368-8.717,22.216-4.207,40.658c0.193,0.79,0.576,2.667,2.082,3.858c21.394,22.844,156.994,25.492,186.87,1.743
			c1.474-1.436,2.044-2.612,2.351-3.368c16.904-41.747,70.841-77.021,72.416-62.238c1.84,17.265,0.401,62.633,0.401,100.301
			c0,18.851,2.914,19.365,17.95,19.365c14.694,0,14.215,0.64,14.215-12.039c0-15.828,0-38.875,0-63.51
			C300.96,169.417,317.71,159.858,327.966,136.004z"/>
	</g>
</g>
<g>
</g>
<g>
</g>
<g>
</g>
<g>
</g>
<g>
</g>
<g>
</g>
<g>
</g>
<g>
</g>
<g>
</g>
<g>
</g>
<g>
</g>
<g>
</g>
<g>
</g>
<g>
</g>
<g>
</g>
</svg>
