<?xml version="1.0" encoding="iso-8859-1"?>
<!-- Generator: Adobe Illustrator 16.0.0, SVG Export Plug-In . SVG Version: 6.00 Build 0)  -->
<!DOCTYPE svg PUBLIC "-//W3C//DTD SVG 1.1//EN" "http://www.w3.org/Graphics/SVG/1.1/DTD/svg11.dtd">
<svg version="1.1" id="Capa_1" xmlns="http://www.w3.org/2000/svg" xmlns:xlink="http://www.w3.org/1999/xlink" x="0px" y="0px"
	 width="387.001px" height="387.001px" viewBox="0 0 387.001 387.001" style="enable-background:new 0 0 387.001 387.001;"
	 xml:space="preserve">
<g>
	<path d="M383.886,150.479c0,0-23.556-26.517-79.23-93.276c-14.284-17.129-41.34-22.719-58.437-5.195
		c-8.834,9.054-41.512,40.282-41.512,40.282c-5.489,6.264-15.661,7.778-22.414,0c0,0-32.798-31.112-41.511-40.282
		c-16.391-17.248-44.152-11.934-58.437,5.195c-55.675,66.76-79.23,93.276-79.23,93.276c-4.026,4.065-4.168,10.831-0.325,15.064
		l36.464,41.125c3.844,4.232,10.155,4.246,14.012,0.039l24.345-20.963c0,0,3.436-3.865,3.436,3.71c0,36.472,0,122.837,0,149.555
		c0,6.691,6.06,6.691,6.06,6.691h106.393h106.575c0,0,5.878,0,5.878-7.991c0-25.322,0-111.046,0-147.822
		c0-8.441,3.524-4.025,3.524-4.025l24.257,20.846c3.856,4.207,10.168,4.193,14.012-0.039l36.464-41.125
		C388.054,161.309,387.912,154.543,383.886,150.479z M285.458,177.833c0,1.213-0.848,2.72-1.885,3.349l-25.448,15.445
		c-1.036,0.629-2.733,0.629-3.77,0l-25.448-15.445c-1.037-0.629-1.886-2.136-1.886-3.349v-36.866c0-1.213,0.993-2.206,2.205-2.206
		h54.025c1.213,0,2.205,0.993,2.205,2.206L285.458,177.833L285.458,177.833z"/>
</g>
<g>
</g>
<g>
</g>
<g>
</g>
<g>
</g>
<g>
</g>
<g>
</g>
<g>
</g>
<g>
</g>
<g>
</g>
<g>
</g>
<g>
</g>
<g>
</g>
<g>
</g>
<g>
</g>
<g>
</g>
</svg>
