<?xml version="1.0" encoding="iso-8859-1"?>
<!-- Generator: Adobe Illustrator 19.0.0, SVG Export Plug-In . SVG Version: 6.00 Build 0)  -->
<svg version="1.1" id="Layer_1" xmlns="http://www.w3.org/2000/svg" xmlns:xlink="http://www.w3.org/1999/xlink" x="0px" y="0px"
	 viewBox="0 0 512 512" style="enable-background:new 0 0 512 512;" xml:space="preserve">
<g>
	<g>
		<path d="M449.459,301.176c-12.369-80.098-73.293-144.157-151.752-161.182c2.184-3.48,3.47-7.582,3.47-11.994
			c0-12.475-10.113-22.588-22.588-22.588c8.846,0,23.191,0,30.118,0c29.109,0,52.706-23.597,52.706-52.706S337.815,0,308.706,0
			S256,23.597,256,52.706C256,23.597,232.403,0,203.294,0s-52.706,23.597-52.706,52.706s23.597,52.706,52.706,52.706
			c6.927,0,21.272,0,30.118,0c-12.475,0-22.588,10.114-22.588,22.588c0,4.412,1.284,8.514,3.471,11.994
			C135.834,157.02,74.91,221.079,62.541,301.176H0v150.588h50.339C62.744,486.853,96.191,512,135.529,512
			c39.338,0,72.785-25.147,85.191-60.235h70.558C303.684,486.853,337.131,512,376.469,512c39.338,0,72.785-25.147,85.191-60.235H512
			V301.176H449.459z M286.118,52.706c0-12.455,10.133-22.588,22.588-22.588s22.588,10.133,22.588,22.588
			s-10.133,22.588-22.588,22.588h-22.588V52.706z M225.882,75.294h-22.588c-12.455,0-22.588-10.133-22.588-22.588
			s10.133-22.588,22.588-22.588s22.588,10.133,22.588,22.588V75.294z M135.529,463.059c-22.871,0-41.412-18.542-41.412-41.412
			c0-22.87,18.54-41.412,41.412-41.412s41.412,18.542,41.412,41.412C176.941,444.517,158.401,463.059,135.529,463.059z
			 M225.882,301.176H108.427c11.978-59.003,58.452-105.478,117.456-117.456V301.176z M286.118,301.176V183.721
			c59.003,11.978,105.478,58.452,117.456,117.456H286.118z M376.471,463.059c-22.871,0-41.412-18.542-41.412-41.412
			c0-22.87,18.54-41.412,41.412-41.412s41.412,18.542,41.412,41.412C417.882,444.517,399.342,463.059,376.471,463.059z"/>
	</g>
</g>
<g>
</g>
<g>
</g>
<g>
</g>
<g>
</g>
<g>
</g>
<g>
</g>
<g>
</g>
<g>
</g>
<g>
</g>
<g>
</g>
<g>
</g>
<g>
</g>
<g>
</g>
<g>
</g>
<g>
</g>
</svg>
